<svg xmlns="http://www.w3.org/2000/svg" viewBox="0 0 500 500" fill="#5a7079" opacity="0.25"><path d="M457.8 250c0 121.1-93.1 219.2-207.8 219.2S42.2 371.1 42.2 250 135.2 30.8 250 30.8 457.8 128.9 457.8 250zM250 48.8C144.6 48.8 59.2 138.9 59.2 250S144.6 451.2 250 451.2 440.8 361.1 440.8 250 355.4 48.8 250 48.8z"/><path d="M249.1 163.8s27.4-13.8 27.7-16.9c2.2-24.5 40-61.5 47.4-61.4 1.3 1.2-7.4 36-11 44.4-2.9 7-10.8 22.8-17.2 27.2-2.9 2-14.3 3.6-21.4 6.1-8 2.7-11.6 6.3-12.7 8.9-2 5.1-1.3 58.2 0 58.2 3.5 0 24-15.9 24-15.9s32.5.9 33.4-1.7c2.2-6.4 14.8-20.1 29.3-31.4 19-14.8 40.8-26.9 41.9-26.7 1.2.2-11 26.5-25.5 46.1-10.4 14-22.6 23.2-29 23.9-15.5 1.7-46.7 1.2-46.7 1.2l-27 19.9s-1.9 55.7-.3 56.4c1.5.7 15-9.4 18.9-11 3.9-1.5 45.9-.2 48.3-1.2s9.3-12.1 12.8-16 26.2-16.9 37.5-21.8 36.1-10.1 37.6-8.9-42.2 54-54.2 56.9-71.7 2.6-77.9 4.6-21.6 13-22.6 15.7-1.9 69 0 69.9c1.9.8 14.3-10.6 20.6-13.5 6.2-2.9 20.2-3.7 24-4.7 3.7-1 13.4-14.2 26.3-22.1 9.5-5.9 46.1-10.8 55.3-5 3.8 2.4-51.6 39.5-59.2 41.2s-37.2-.2-41.9 1.5-22.4 15.5-24 23.6c-1.5 8.1 0 43.9 0 43.9h-14.2l-.2-291.4z"/><path d="M250.9 163.8s-27.4-13.8-27.7-16.9c-2.2-24.5-40-61.5-47.4-61.4-1.3 1.2 7.4 36 11 44.4 2.9 7 10.8 22.8 17.2 27.2 2.9 2 14.3 3.6 21.4 6.1 8 2.7 11.6 6.3 12.7 8.9 2 5.1 1.3 58.2 0 58.2-3.5 0-24-15.9-24-15.9s-32.5.9-33.4-1.7c-2.2-6.4-14.8-20.1-29.3-31.4-19-14.8-40.8-26.9-41.9-26.7-1.2.2 11 26.5 25.5 46.1 10.4 14 22.6 23.2 29 23.9 15.5 1.7 46.7 1.2 46.7 1.2l27 19.9s1.9 55.7.3 56.4c-1.5.7-15-9.4-18.9-11-3.9-1.5-45.9-.2-48.3-1.2s-9.3-12.1-12.8-16-26.2-16.9-37.5-21.8-36.1-10.1-37.6-8.9 42.2 54 54.2 56.9 71.7 2.6 77.9 4.6 21.6 13 22.6 15.7 1.9 69 0 69.9c-1.9.8-14.3-10.6-20.6-13.5-6.2-2.9-20.2-3.7-24-4.7-3.7-1-13.4-14.2-26.3-22.1-9.5-5.9-46.1-10.8-55.3-5-3.8 2.4 51.6 39.5 59.2 41.2s37.2-.2 41.9 1.5 22.4 15.5 24 23.6c1.5 8.1 0 43.9 0 43.9h14.2V163.8h.2z"/></svg>